# xmcd CD database file
#
# Track frame offsets:
#	150
#	26332
#	51466
#	78371
#	102521
#	125830
#	149393
#	171713
#	194526
#	216256
#	239614
#	266762
#	287022
#	310406
#	331359
#
# Disc length: 4735 seconds
#
# Revision: 1
# Processed by: cddbd v1.5.2PL0 Copyright (c) Steve Scherf et al.
# Submitted via: CDex 1.51
#
DISCID=f6127d0f
DTITLE=Various Artist - NRC-Salsa
DYEAR=2008
DGENRE=Salsa
TTITLE0=Tito Puente-Oye Como Va
TTITLE1=Willie Rosario-Busca El Ritmo
TTITLE2=Oscar D'Leon-Yo Quisiera Saber
TTITLE3=Andy Montañez-Casi Te Envidio
TTITLE4=Jose Alberrto-A La Hora Que Me
TTITLE5=Tommy Olivencia-Lo Dudo
TTITLE6=Eddie Santiago-Lluvia
TTITLE7=Tony Vega-Aparentemente
TTITLE8=Frankeie Ruiz-Desnudate Mujer
TTITLE9=Lalo Rodriguez-Ven Devorame Otra Vez
TTITLE10=Bobby Cruz and Richie Ray-Sonido Bestial
TTITLE11=Conjunto Clasico-Sé Que Volverá
TTITLE12=Victor Manuelle-Prefiero Ser Rumbero
TTITLE13=Ray De La Paz and Louie Ramirez-Yo Soy La Romba
TTITLE14=Humberto Ramirez-Un Tipo Con Suerte
EXTD=YEAR: 2008
EXTT0=
EXTT1=
EXTT2=
EXTT3=
EXTT4=
EXTT5=
EXTT6=
EXTT7=
EXTT8=
EXTT9=
EXTT10=
EXTT11=
EXTT12=
EXTT13=
EXTT14=
PLAYORDER=
